<svg width="59" height="67" viewBox="0 0 59 67" fill="none" xmlns="http://www.w3.org/2000/svg">
<g clip-path="url(#clip0_849_849)">
<path d="M39.2183 66.5548H19.2195C18.4023 66.066 18.1369 65.5703 18.3225 64.8892C18.4943 64.2652 19.0148 63.9585 19.9152 63.9567C20.7723 63.9567 21.6293 63.9567 22.5142 63.9567C22.96 61.5303 23.3938 59.18 23.8431 56.7328C23.4892 56.7328 23.2359 56.7328 22.9826 56.7328C17.8558 56.7328 12.729 56.7362 7.60225 56.7276C6.99848 56.7276 6.38258 56.712 5.79616 56.5906C2.2985 55.8748 0.00836502 53.022 0.00489512 49.384C-0.00377964 40.3766 -0.000309737 31.3691 0.00316017 22.3617C0.00316017 17.8762 3.05494 14.8258 7.53805 14.8188C8.13661 14.8188 8.73343 14.8188 9.37537 14.8188C9.37537 14.4774 9.37537 14.2209 9.37537 13.9644C9.37537 10.673 9.36669 7.38169 9.37884 4.09035C9.38578 2.11277 10.4632 0.67768 12.3074 0.128257C12.4063 0.0987923 12.4983 0.0433299 12.5937 0C23.6766 0 34.7577 0 45.8406 0C48.4395 1.05725 49.0606 1.99664 49.0606 4.87029C49.0606 7.94498 49.0606 11.0197 49.0606 14.0944C49.0606 14.3214 49.0606 14.5502 49.0606 14.8188C49.7806 14.8188 50.4035 14.8171 51.0281 14.8188C55.3481 14.8379 58.4276 17.9109 58.4311 22.2317C58.438 31.26 58.4363 40.2899 58.4259 49.3181C58.4259 49.9404 58.3739 50.5782 58.2316 51.1831C57.4405 54.5628 54.642 56.7172 51.0298 56.7258C45.8388 56.7397 40.6461 56.7293 35.4552 56.7293C35.2018 56.7293 34.9485 56.7293 34.5929 56.7293C35.0474 59.1939 35.4846 61.5614 35.9253 63.9533C36.9437 63.9533 37.8945 63.9342 38.8435 63.9585C39.6902 63.9793 40.2141 64.5945 40.1447 65.4005C40.0944 66.0019 39.6763 66.2896 39.2165 66.5496L39.2183 66.5548ZM12.0125 9.34194V47.3198H46.4148V9.34194H12.0125ZM55.7818 50.0426H2.60906C2.6906 50.3927 2.73571 50.6683 2.81899 50.9352C3.4401 52.9353 5.14556 54.1295 7.41661 54.1312C21.9555 54.1347 36.4944 54.133 51.0333 54.1312C51.2276 54.1312 51.4219 54.1243 51.6162 54.1087C53.83 53.9458 55.5147 52.3218 55.7818 50.0426ZM9.32505 47.3388V24.2266H2.63508V47.3388H9.32505ZM55.794 47.3336V24.2214H49.0971V47.3336H55.794ZM11.9917 6.63815H46.4148C46.4391 6.53242 46.4565 6.48909 46.4565 6.4475C46.4599 5.75422 46.4651 5.06267 46.4634 4.36939C46.4617 3.01576 46.0384 2.5998 44.666 2.5998C34.3708 2.5998 24.0756 2.5998 13.7804 2.5998C13.6069 2.5998 13.4334 2.59286 13.2617 2.605C12.5694 2.65526 12.0472 3.08509 12.0056 3.77664C11.95 4.7195 11.9917 5.66929 11.9917 6.63815ZM33.2761 63.9273C32.8493 61.6082 32.4398 59.3551 32.0043 57.1071C31.9766 56.9615 31.7406 56.7518 31.6001 56.7501C29.9155 56.7258 28.2308 56.7345 26.4924 56.7345C26.0465 59.1454 25.6076 61.5164 25.16 63.929H33.2778L33.2761 63.9273ZM9.32679 21.5575V17.4637C5.33119 17.0893 2.67498 18.7341 2.69233 21.5575H9.32679ZM49.0901 21.5523H55.7662C55.6656 19.6701 54.2638 17.9403 52.3935 17.5833C51.3282 17.3805 50.2161 17.4273 49.0919 17.3597V21.5523H49.0901Z" fill="#D0C133"/>
<path d="M13.6107 31.2477C13.6107 27.8489 13.6089 24.4501 13.6107 21.0513C13.6124 18.8796 14.8165 17.6715 16.9747 17.6681C18.8346 17.6646 20.6945 17.6611 22.5543 17.6681C24.4697 17.6767 25.7571 18.8986 25.7623 20.819C25.7831 27.7899 25.7831 34.7609 25.7623 41.7318C25.7571 43.6539 24.4836 44.8723 22.5595 44.8845C20.6355 44.8966 18.7097 44.9001 16.7856 44.8845C14.8668 44.8689 13.6193 43.6227 13.6141 41.7041C13.602 38.2186 13.6107 34.7331 13.6107 31.2477ZM23.1772 31.3291C23.1772 27.9321 23.172 24.5333 23.1824 21.1362C23.1841 20.5746 23.0766 20.2436 22.3982 20.2557C20.5834 20.2887 18.7652 20.2817 16.9504 20.2592C16.3779 20.2523 16.1992 20.4828 16.2009 21.0322C16.2114 27.8714 16.2131 34.7106 16.2009 41.5481C16.2009 42.1252 16.4317 42.302 16.9747 42.2968C18.7253 42.2777 20.4776 42.2916 22.2282 42.2899C23.1217 42.2899 23.1755 42.2344 23.1772 41.3297C23.1789 37.9967 23.1772 34.6638 23.1772 31.3309V31.3291Z" fill="white"/>
<path d="M36.3524 17.671C38.0821 17.671 39.8136 17.6641 41.5434 17.6728C43.4171 17.6832 44.6906 18.9138 44.7149 20.7908C44.7444 22.9764 44.7426 25.1637 44.7149 27.351C44.6923 29.202 43.4726 30.4586 41.6145 30.4776C38.0891 30.5158 34.5637 30.5175 31.0382 30.4776C29.1315 30.4568 27.9257 29.1483 27.9205 27.2279C27.9153 25.1273 27.9153 23.0284 27.9205 20.9277C27.9257 18.945 29.1836 17.6797 31.1597 17.671C32.8894 17.6641 34.6209 17.671 36.3507 17.671H36.3524ZM30.5178 23.8152C31.0886 23.349 31.5396 22.9556 32.0167 22.5951C33.1844 21.7094 34.6452 21.7233 35.7937 22.6263C36.2015 22.9469 36.6213 23.2623 36.9804 23.6333C37.4506 24.1185 37.834 24.0579 38.2955 23.6194C39.3087 22.6523 40.4798 22.4737 41.7672 23.0162C41.8609 23.0561 41.9615 23.0769 42.1246 23.1272C42.1246 22.3247 42.128 21.569 42.1246 20.8151C42.1211 20.3974 41.8765 20.2656 41.4896 20.2674C38.0526 20.2726 34.6157 20.2726 31.1788 20.2674C30.7103 20.2674 30.5125 20.4702 30.5195 20.9329C30.5316 21.8411 30.523 22.7493 30.523 23.8152H30.5178ZM36.2951 27.8917C37.9798 27.8917 39.6661 27.9073 41.3508 27.8761C41.6006 27.8709 42.0448 27.6664 42.0569 27.5243C42.0986 27.0321 42.3952 26.4532 41.8036 26.0511C40.9373 25.4629 40.2341 25.3878 39.6939 25.8257C38.3684 26.9055 36.8763 26.9055 35.5595 25.824C35.1917 25.5224 34.8152 25.2295 34.4769 24.8968C34.0779 24.505 33.7413 24.4877 33.311 24.8742C32.5563 25.5519 31.7461 26.1689 30.9862 26.8431C30.7884 27.0182 30.6895 27.3076 30.5455 27.5433C30.8196 27.6595 31.092 27.8727 31.3696 27.8779C33.0109 27.909 34.6539 27.8934 36.2951 27.8934V27.8917Z" fill="white"/>
<path d="M36.3177 44.8886C34.6087 44.8886 32.8998 44.8956 31.1926 44.8869C29.1645 44.8765 27.9257 43.6269 27.9205 41.599C27.917 39.5001 27.9136 37.3995 27.9205 35.3006C27.9275 33.3906 29.1749 32.1011 31.0712 32.0924C34.574 32.0734 38.0787 32.0734 41.5815 32.0924C43.431 32.1028 44.6853 33.3369 44.7114 35.1827C44.7426 37.3908 44.7426 39.5989 44.7114 41.807C44.6836 43.6511 43.424 44.8696 41.5711 44.8869C39.8188 44.9042 38.0682 44.8904 36.3159 44.8921L36.3177 44.8886ZM40.3844 42.2906C40.7349 42.2906 40.9934 42.2906 41.2519 42.2906C42.0604 42.2836 42.1246 42.223 42.1246 41.3876C42.128 39.4169 42.1124 37.4445 42.1332 35.4739C42.1402 34.8898 41.9285 34.6714 41.3352 34.6749C38.0023 34.694 34.6695 34.694 31.3384 34.6749C30.7207 34.6714 30.4952 34.8863 30.5056 35.5086C30.5333 37.3059 30.516 39.1032 30.516 40.9023C30.516 42.372 30.5351 42.3894 32.0063 42.2819C32.067 42.2767 32.126 42.2472 32.251 42.2091C32.3013 40.8399 32.067 39.3927 33.1618 38.2401C34.2704 37.0719 35.6809 37.1516 37.0915 37.188C37.9208 37.2088 38.646 37.5017 39.2775 38.0494C40.5787 39.1812 40.3861 40.7237 40.3844 42.2906ZM37.7837 42.2663C37.7837 41.651 37.8011 41.0929 37.7785 40.5366C37.7577 40.0443 37.4454 39.7393 36.9787 39.8C36.2726 39.8935 35.2923 39.3268 34.9401 40.3528C34.7458 40.9196 34.9054 41.6094 34.9054 42.2663H37.7854H37.7837Z" fill="white"/>
<path d="M31.7513 15.2799C27.9656 15.2799 24.18 15.2834 20.3943 15.2782C19.4002 15.2782 18.8433 14.8241 18.8138 14.0338C18.7895 13.3561 19.225 12.8153 19.8964 12.7183C20.1514 12.6819 20.4134 12.6836 20.6736 12.6836C28.0732 12.6836 35.471 12.6836 42.8706 12.6836C43.1291 12.6836 43.3928 12.6836 43.6461 12.7217C44.2655 12.8171 44.6871 13.3058 44.7097 13.9246C44.7339 14.5797 44.3314 15.1118 43.6895 15.2297C43.4154 15.2799 43.1308 15.2782 42.8498 15.2782C39.1509 15.2817 35.4502 15.2799 31.7513 15.2782V15.2799Z" fill="#D0C133"/>
<path d="M13.6176 13.9818C13.6176 13.2608 14.1659 12.7062 14.8841 12.6993C15.5955 12.6924 16.1784 13.2487 16.1992 13.9489C16.22 14.6665 15.6111 15.2783 14.8841 15.2696C14.1745 15.2609 13.6176 14.6959 13.6176 13.9801V13.9818Z" fill="#D0C133"/>
<path d="M43.0632 3.36864C43.3651 3.36864 43.6704 3.34611 43.9706 3.37384C44.6142 3.43104 45.0913 3.92846 45.1416 4.55935C45.1885 5.15557 44.8155 5.78472 44.2048 5.85925C43.4206 5.95284 42.6086 5.95804 41.8244 5.86445C41.1773 5.78645 40.8303 5.17117 40.8893 4.51082C40.9448 3.87993 41.4202 3.41717 42.0899 3.37037C42.4126 3.34784 42.7387 3.36691 43.0632 3.36691V3.37037V3.36864Z" fill="#D0C133"/>
<path d="M19.6501 28.4629C19.1539 28.4629 18.6577 28.4837 18.1632 28.4577C17.4328 28.4178 16.8932 27.8493 16.8967 27.1612C16.9002 26.4731 17.4397 25.8977 18.1736 25.8769C19.1851 25.8492 20.2 25.8475 21.2115 25.8769C21.9558 25.8995 22.4711 26.4627 22.4676 27.1699C22.4641 27.8753 21.9454 28.4195 21.2011 28.4559C20.6858 28.4819 20.1671 28.4611 19.6501 28.4611V28.4629Z" fill="white"/>
<path d="M19.735 34.5784C20.1879 34.5784 20.6407 34.568 21.0935 34.5801C21.9263 34.6044 22.4763 35.1365 22.4676 35.8921C22.4589 36.6201 21.9193 37.1539 21.1247 37.1695C20.1549 37.1886 19.1851 37.1903 18.2152 37.1695C17.4449 37.1504 16.8845 36.5715 16.8949 35.8609C16.9053 35.1486 17.4675 34.6165 18.2482 34.5801C18.2916 34.5784 18.3349 34.5801 18.3783 34.5801C18.8311 34.5801 19.2839 34.5801 19.7368 34.5801L19.735 34.5784Z" fill="white"/>
<path d="M19.7282 21.5282C20.2261 21.5282 20.724 21.5056 21.2202 21.5334C21.9524 21.575 22.4486 22.088 22.4676 22.7726C22.4867 23.4607 22.0252 24.0396 21.2965 24.0777C20.24 24.1314 19.1764 24.1314 18.1199 24.0846C17.3634 24.0517 16.862 23.4468 16.8967 22.7553C16.9297 22.0776 17.438 21.5871 18.1702 21.5282C18.2135 21.5247 18.2569 21.523 18.3003 21.523C18.7757 21.523 19.2528 21.523 19.7282 21.523C19.7282 21.5247 19.7282 21.5264 19.7282 21.5282Z" fill="white"/>
<path d="M19.65 32.8121C19.1521 32.8121 18.6524 32.8433 18.158 32.8051C17.3911 32.7445 16.8828 32.1985 16.8949 31.5035C16.9053 30.805 17.4328 30.2643 18.1961 30.2435C19.1903 30.2157 20.1879 30.2157 21.182 30.2435C21.9488 30.2643 22.4624 30.8015 22.4693 31.5104C22.4763 32.1985 22.0061 32.7063 21.2722 32.8051C21.208 32.8138 21.1438 32.8242 21.0779 32.8242C20.6025 32.8242 20.1254 32.8242 19.65 32.8242C19.65 32.8207 19.65 32.8155 19.65 32.8121Z" fill="white"/>
<path d="M19.7108 38.9454C20.2087 38.9454 20.7066 38.9246 21.2028 38.9506C21.9384 38.9904 22.4399 39.4913 22.4659 40.1742C22.4954 40.8866 22.0148 41.4672 21.2479 41.5036C20.2122 41.5521 19.1712 41.5521 18.1354 41.5053C17.3738 41.4706 16.8707 40.8831 16.8949 40.1898C16.9192 39.4913 17.4449 38.9818 18.217 38.9488C18.7132 38.9263 19.2128 38.9454 19.709 38.9471L19.7108 38.9454Z" fill="white"/>
</g>
<defs>
<clipPath id="clip0_849_849">
<rect width="58.4384" height="66.5548" fill="white"/>
</clipPath>
</defs>
</svg>
