<svg width="59" height="59" viewBox="0 0 59 59" fill="none" xmlns="http://www.w3.org/2000/svg">
<path d="M22.7559 49.3799H55.3477V36.0869H22.7559V49.3799ZM3.44727 28.0566H36.042V14.7627H3.44727V28.0566ZM40.4189 6.76074H46.4922V3.46191H40.4189V6.76074ZM12.3369 6.74902H37.7217V3.45312H12.3369V6.74902ZM58.0205 51.0947L58.001 51.1367C57.8341 51.4862 57.6027 51.7251 57.3096 51.8721C57.0213 52.0166 56.6895 52.0635 56.333 52.0596C54.0859 52.0315 51.8398 52.0498 49.5889 52.0498H49.1416C49.1395 53.5109 49.1175 54.9101 49.1543 56.3096C49.1637 56.6715 49.113 57.0014 48.9688 57.29C48.8229 57.5816 48.5887 57.8156 48.2598 57.9961L48.2148 58.0205H10.6016L10.5566 57.9961C10.2237 57.8148 9.99339 57.579 9.85059 57.2861C9.70984 56.9974 9.66133 56.6677 9.66211 56.3096C9.6799 47.9357 9.67383 39.5619 9.67383 31.1875V30.7227C7.19004 30.7227 4.77979 30.7241 2.37109 30.7227C1.86017 30.7227 1.45037 30.621 1.17383 30.3408C0.898005 30.0613 0.797852 29.6485 0.797852 29.1338C0.796369 23.976 0.796369 18.8179 0.797852 13.6602C0.79791 13.1624 0.899886 12.7602 1.17383 12.4873C1.44756 12.2147 1.85066 12.1131 2.34961 12.1123H9.67383V11.665C9.67383 8.61279 9.69026 5.56518 9.66211 2.51562C9.65899 2.15682 9.70727 1.82642 9.84863 1.53711C9.99196 1.24389 10.2229 1.00764 10.5566 0.827148L10.6016 0.802734H47.958V0.658203L48.2578 0.822266C48.5907 1.00356 48.8209 1.23917 48.9639 1.53223C49.1049 1.8214 49.1539 2.15136 49.1523 2.50977C49.1301 7.02175 49.1406 11.5326 49.1406 16.0459C49.1406 16.1796 49.1478 16.3485 49.1318 16.5078C49.0665 17.2094 48.532 17.73 47.8418 17.7373H47.8408C47.1287 17.7441 46.5566 17.2101 46.5234 16.4678V16.4668C46.498 15.8708 46.5137 15.2668 46.5137 14.6826V9.45996H12.3398V12.1084H36.9844C37.582 12.1084 38.04 12.1875 38.335 12.4795C38.6303 12.7722 38.71 13.227 38.71 13.8193V29.0195C38.71 29.5988 38.6247 30.0477 38.335 30.3408C38.0445 30.6347 37.5989 30.7217 37.0244 30.7217H12.3398V55.3604H46.4873V52.0469H21.8945C21.254 52.0469 20.7741 51.9781 20.4736 51.6729C20.1743 51.3687 20.1074 50.8833 20.1074 50.2334V35.0889C20.1074 34.533 20.1997 34.0972 20.4912 33.8096C20.7821 33.5228 21.2224 33.4316 21.7852 33.4316H46.5176V33.0283C46.5176 30.8833 46.5141 28.7369 46.5186 26.5928C46.5186 26.2337 46.5959 25.9215 46.7607 25.6729C46.9274 25.4218 47.1727 25.2523 47.4775 25.1621C47.9093 25.0339 48.3293 25.1329 48.6396 25.3955C48.9481 25.6565 49.1372 26.0684 49.1396 26.5498C49.1485 28.6957 49.1426 30.8423 49.1426 32.9854V33.4336H50.5303C52.4557 33.4336 54.3756 33.4544 56.2959 33.4219C56.6544 33.4156 56.9847 33.4645 57.2754 33.6055C57.569 33.748 57.808 33.9772 57.9941 34.3037L58.0205 34.3506V51.0947Z" fill="#D0C133" stroke="#D0C133" stroke-width="0.405822"/>
<path d="M11.3161 15.6387C12.5539 15.6387 13.7903 15.6343 15.0282 15.6402C15.9028 15.6446 16.309 16.0544 16.312 16.9363C16.3179 18.5801 16.3179 20.2224 16.312 21.8662C16.309 22.7687 15.8954 23.18 14.9792 23.1815C12.5421 23.1859 10.1049 23.1859 7.6663 23.1815C6.74866 23.18 6.33061 22.7702 6.32764 21.8721C6.32171 20.2283 6.32319 18.586 6.32764 16.9422C6.33061 16.0367 6.73532 15.6417 7.66037 15.6387C8.87895 15.6343 10.0975 15.6387 11.3161 15.6387ZM14.0631 20.9385V17.8921H8.5869V20.9385H14.0631Z" fill="white"/>
<path d="M26.311 17.8536C24.538 17.8536 22.7664 17.8536 20.9934 17.8536C20.8452 17.8536 20.6969 17.8595 20.5502 17.8506C19.8831 17.8062 19.4146 17.3342 19.425 16.7217C19.4339 16.1018 19.9023 15.649 20.5857 15.6402C21.6012 15.6268 22.6167 15.6357 23.6322 15.6357C26.2354 15.6357 28.8386 15.6357 31.4418 15.6357C32.6603 15.6357 33.1896 15.9775 33.1762 16.7557C33.1629 17.5118 32.6307 17.8536 31.4625 17.8536C29.7458 17.8536 28.0291 17.8536 26.311 17.8536Z" fill="white"/>
<path d="M26.3274 20.9671C28.2293 20.9671 30.1313 20.9597 32.0318 20.9716C32.7093 20.976 33.1763 21.445 33.1763 22.0679C33.1763 22.6597 32.7256 23.1243 32.0897 23.1791C31.9429 23.1909 31.7946 23.185 31.6464 23.185C28.0826 23.185 24.5202 23.185 20.9564 23.185C20.8452 23.185 20.7341 23.1879 20.6244 23.185C19.9143 23.1569 19.4265 22.7026 19.425 22.0724C19.425 21.4317 19.9039 20.9745 20.6214 20.9716C22.5234 20.9627 24.4239 20.9686 26.3259 20.9701L26.3274 20.9671Z" fill="white"/>
<path d="M30.6088 44.5043C29.3709 44.5043 28.1345 44.5102 26.8967 44.5028C26.0561 44.4983 25.6411 44.0811 25.6366 43.2378C25.6292 41.5762 25.6307 39.9147 25.6366 38.2516C25.6396 37.3846 26.0621 36.9629 26.9367 36.9615C29.3932 36.9556 31.8481 36.9556 34.3045 36.9615C35.2073 36.9629 35.618 37.3817 35.6209 38.2916C35.6254 39.9354 35.6269 41.5777 35.6209 43.2215C35.618 44.0929 35.2029 44.4983 34.3208 44.5028C33.083 44.5087 31.8466 44.5028 30.6088 44.5028V44.5043ZM27.8796 42.245H33.3558V39.2089H27.8796V42.245Z" fill="white"/>
<path d="M45.6036 39.1795C43.758 39.1795 41.9108 39.1825 40.0652 39.1795C39.2439 39.1781 38.7488 38.7697 38.7339 38.098C38.7191 37.4144 39.2439 36.9632 40.0771 36.9632C43.7698 36.9602 47.4626 36.9602 51.154 36.9632C51.9663 36.9632 52.4704 37.3863 52.4852 38.0536C52.5 38.7431 51.9871 39.1781 51.1436 39.1795C49.2979 39.1825 47.4508 39.1795 45.6051 39.1795H45.6036Z" fill="white"/>
<path d="M45.6155 44.5038C43.7698 44.5038 41.9227 44.5052 40.077 44.5038C39.229 44.5038 38.7206 44.0717 38.7339 43.3793C38.7472 42.7164 39.2572 42.2874 40.0637 42.2874C43.7742 42.2844 47.4848 42.2844 51.1969 42.2874C51.9233 42.2874 52.3947 42.6558 52.4777 43.255C52.5504 43.7729 52.2168 44.307 51.7009 44.4505C51.5097 44.5038 51.2992 44.5023 51.0976 44.5023C49.2697 44.5052 47.4418 44.5038 45.614 44.5038H45.6155Z" fill="white"/>
</svg>
