<svg width="40" height="69" viewBox="0 0 40 69" fill="none" xmlns="http://www.w3.org/2000/svg">
<path d="M33.7109 0.59375C35.4848 0.59375 36.9562 1.13313 37.9844 2.16016C39.0123 3.18711 39.5517 4.65672 39.5527 6.42871V62.541C39.5527 64.2911 39.0081 65.7506 37.9834 66.7734C36.9588 67.7962 35.4971 68.3398 33.7441 68.3398H6.40332C4.65265 68.3398 3.19066 67.7952 2.16602 66.7715C1.14133 65.7476 0.595703 64.2865 0.595703 62.5371V35.4209L0.59375 35.4229V6.42773C0.59375 4.65769 1.13512 3.18824 2.16406 2.16113C3.19288 1.13418 4.66452 0.593824 6.4375 0.59375H33.7109ZM3.0459 62.4463C3.0459 63.6348 3.36344 64.4811 3.91602 65.0312C4.4689 65.5814 5.31947 65.8975 6.51465 65.8975H33.7822C34.0236 65.8975 34.2302 65.9021 34.4395 65.8887C35.9148 65.7856 37.1605 64.6152 37.209 63.2383C37.279 61.2092 37.2353 59.1842 37.2295 57.0986H3.0459V62.4463ZM5.96875 3.04395H5.96582C4.57197 3.0963 3.37035 4.01605 3.17871 5.29395C3.09524 5.85198 3.08631 6.42873 3.09961 7.03223C3.10979 7.49382 3.13251 7.99232 3.14258 8.4873C4.58133 8.48826 6.01431 8.49334 7.4502 8.4834H7.45117C7.76465 8.48144 8.11109 8.52405 8.39648 8.70898C8.70763 8.91068 8.87905 9.23609 8.91504 9.65039C8.94898 10.0414 8.80707 10.3879 8.50293 10.6211C8.22029 10.8377 7.83969 10.9256 7.43555 10.9297H3.08496V54.5742H37.1885V10.9297H14.0371C14.0004 10.9297 13.9553 10.9329 13.8945 10.9385C13.84 10.9435 13.7654 10.9514 13.6953 10.9551C13.5747 10.9615 13.3386 10.9675 13.1387 10.832L13.1377 10.8311C12.9874 10.7284 12.8042 10.5951 12.6465 10.4385C12.4947 10.2877 12.3281 10.0785 12.2666 9.81934L12.2656 9.81738C12.1825 9.45965 12.2826 9.13363 12.5068 8.89551C12.718 8.67135 13.0151 8.54776 13.3125 8.50391C13.574 8.46559 13.8746 8.48729 14.0547 8.4873H37.2402V6.42383C37.2402 5.28527 36.9207 4.45358 36.3711 3.90625C35.8213 3.35866 34.9851 3.04004 33.8408 3.04004H6.42871C6.25748 3.04004 6.1153 3.03726 5.96875 3.04395Z" fill="#D0C133" stroke="#D0C133" stroke-width="0.811644"/>
<path d="M7.85883 13.6523H32.4653C32.9594 13.6523 33.1008 13.7212 33.1518 13.7715C33.2009 13.82 33.2709 13.955 33.2709 14.4414V36.8174C33.2709 37.299 33.1998 37.4318 33.1508 37.4795C33.098 37.5308 32.9534 37.5996 32.4584 37.5996H7.85199C7.32933 37.5996 7.1835 37.531 7.13129 37.4795C7.08104 37.4297 7.01215 37.29 7.01215 36.7754V14.4688C7.01215 13.9546 7.0813 13.8193 7.13031 13.7715C7.15138 13.751 7.19753 13.7183 7.31586 13.6924C7.43863 13.6655 7.61118 13.6523 7.85883 13.6523ZM19.8725 26.4512C16.3307 29.6674 12.8649 32.8127 9.3139 36.0381L8.53656 36.7441H31.7592L30.9809 36.0381C27.4099 32.7964 23.9391 29.6474 20.4174 26.4512L20.145 26.2031L19.8725 26.4512ZM21.0873 25.3262L20.7553 25.627L21.0873 25.9277C24.6529 29.1621 28.1542 32.3395 31.7436 35.5957L32.4223 36.2119V15.9561H32.0141L31.7436 15.6572C28.1471 18.9206 24.6382 22.1046 21.0873 25.3262ZM7.89886 36.1885L8.57758 35.5723C12.1518 32.3274 15.6484 29.1545 19.2026 25.9277L19.5336 25.627L19.2026 25.3262C15.63 22.0848 12.1376 18.9134 8.57758 15.6846L7.89886 15.0693V36.1885ZM9.30316 15.21C12.9052 18.477 16.3812 21.63 19.8754 24.8008L20.1489 25.0488L20.4213 24.8008C23.9558 21.5918 27.4227 18.4444 30.9828 15.21L31.7602 14.5039H8.52484L9.30316 15.21Z" fill="white" stroke="#D0C133" stroke-width="0.811644"/>
<path d="M7.90106 45.749C7.96184 45.7538 8.03785 45.7598 8.11298 45.7598H32.1745C32.3954 45.7598 32.526 45.7478 32.6725 45.7656H32.6735C32.8427 45.7857 32.9363 45.8409 32.986 45.8926C33.0321 45.9407 33.0748 46.022 33.0749 46.1699C33.0749 46.3162 33.032 46.3983 32.985 46.4473C32.9472 46.4866 32.885 46.5274 32.7858 46.5537L32.6735 46.5742C32.502 46.5941 32.35 46.5811 32.1052 46.5811H20.4792V46.5791H8.11102C8.03681 46.5791 7.96139 46.5843 7.90106 46.5889C7.83528 46.5939 7.78441 46.5984 7.737 46.5996C7.70029 46.6006 7.67656 46.5974 7.6618 46.5957C7.54966 46.5096 7.43496 46.4108 7.35028 46.3135C7.30501 46.2614 7.27602 46.2184 7.25946 46.1865C7.25572 46.1793 7.25255 46.1735 7.25067 46.1689C7.25251 46.1646 7.25499 46.1591 7.25848 46.1523C7.27521 46.1202 7.30554 46.0769 7.35126 46.0244C7.43649 45.9265 7.55104 45.8266 7.66278 45.7402C7.67771 45.7387 7.70145 45.7372 7.737 45.7383C7.78453 45.7397 7.83484 45.7438 7.90106 45.749Z" fill="#D0C133" stroke="#D0C133" stroke-width="0.811644"/>
<path d="M7.88861 49.833C7.94443 49.838 8.01583 49.8437 8.08685 49.8438H32.2187C32.2852 49.8438 32.3512 49.8378 32.4013 49.833C32.4579 49.8276 32.4967 49.8233 32.5341 49.8213C32.5422 49.8209 32.5493 49.8214 32.5556 49.8213C32.6855 49.9217 32.804 50.0124 32.9042 50.1094C33.0218 50.2232 33.056 50.2933 33.0624 50.3223C33.0817 50.4099 33.0609 50.4637 33.0185 50.5098C32.9655 50.5673 32.8571 50.6305 32.6894 50.6543H32.6884C32.526 50.6777 32.3809 50.6631 32.1328 50.6631H20.2685L20.2665 50.6611H8.13666C8.06087 50.6611 7.98487 50.6668 7.92377 50.6719C7.857 50.6774 7.80683 50.6827 7.75873 50.6846C7.71906 50.6861 7.69392 50.6833 7.67865 50.6816C7.56194 50.5972 7.4367 50.4958 7.34467 50.3975C7.30107 50.3508 7.27392 50.3127 7.25775 50.2861C7.26081 50.2791 7.26381 50.27 7.26947 50.2598C7.29025 50.2222 7.32442 50.1755 7.37396 50.1201C7.4636 50.0198 7.57823 49.9195 7.69818 49.8203C7.70834 49.8202 7.72156 49.8196 7.73822 49.8203C7.78134 49.8223 7.82642 49.8274 7.88861 49.833Z" fill="#D0C133" stroke="#D0C133" stroke-width="0.811644"/>
<path d="M7.89355 41.5449C11.8753 41.5413 15.8578 41.5431 19.8398 41.5449C20.1752 41.5449 20.3518 41.6075 20.4365 41.6689C20.498 41.7136 20.5475 41.7831 20.5498 41.9482C20.5519 42.0993 20.504 42.1759 20.4346 42.2285C20.3466 42.2951 20.1703 42.3615 19.8584 42.3623H7.91406C7.59858 42.3623 7.4164 42.2978 7.32324 42.2305C7.24908 42.1768 7.20172 42.1015 7.2002 41.958V41.957L7.20703 41.8604C7.22286 41.775 7.2634 41.7211 7.31836 41.6797C7.40893 41.6114 7.58663 41.5449 7.89355 41.5449Z" fill="#D0C133" stroke="#D0C133" stroke-width="0.811644"/>
<path d="M20.1093 58.3242C21.4858 58.2963 22.6861 59.3917 22.8242 60.7432L22.8369 61.0166C22.8305 62.4667 21.6145 63.6803 20.1396 63.6914H20.1054C18.7689 63.6838 17.6006 62.6044 17.455 61.2949L17.4404 61.0283C17.4376 59.6626 18.4859 58.5087 19.8359 58.3438L20.1093 58.3242ZM20.1972 59.1494C19.1707 59.1192 18.2837 59.9689 18.2744 60.9971C18.2657 61.924 18.9967 62.7307 19.9033 62.8564L20.0869 62.8721C21.1038 62.9072 22.0042 62.0397 22.0136 61.0205L22.0175 60.6113H21.9658C21.7952 59.863 21.154 59.2674 20.3818 59.1641L20.1972 59.1494Z" fill="white" stroke="#D0C133" stroke-width="0.811644"/>
</svg>
